<mxfile host="app.diagrams.net" agent="Mozilla/5.0 (Windows NT 10.0; Win64; x64) AppleWebKit/537.36 (KHTML, like Gecko) Chrome/126.0.0.0 Safari/537.36" version="26.0.2">
  <diagram name="第 1 页" id="-bFmWnIOgYskP8WVXcl6">
    <mxGraphModel dx="1259" dy="749" grid="1" gridSize="10" guides="1" tooltips="1" connect="1" arrows="1" fold="1" page="1" pageScale="1" pageWidth="827" pageHeight="1169" math="0" shadow="0">
      <root>
        <mxCell id="0" />
        <mxCell id="1" parent="0" />
        <mxCell id="Cx2d999oBa-6Gh2xM0pa-6" style="edgeStyle=orthogonalEdgeStyle;rounded=0;orthogonalLoop=1;jettySize=auto;html=1;exitX=0.5;exitY=1;exitDx=0;exitDy=0;entryX=0.5;entryY=0;entryDx=0;entryDy=0;" edge="1" parent="1" source="Cx2d999oBa-6Gh2xM0pa-1" target="Cx2d999oBa-6Gh2xM0pa-5">
          <mxGeometry relative="1" as="geometry" />
        </mxCell>
        <mxCell id="Cx2d999oBa-6Gh2xM0pa-1" value="首页工单列表" style="rounded=1;whiteSpace=wrap;html=1;fontStyle=1" vertex="1" parent="1">
          <mxGeometry x="330" y="210" width="120" height="60" as="geometry" />
        </mxCell>
        <mxCell id="Cx2d999oBa-6Gh2xM0pa-4" style="edgeStyle=orthogonalEdgeStyle;rounded=0;orthogonalLoop=1;jettySize=auto;html=1;exitX=1;exitY=0.5;exitDx=0;exitDy=0;entryX=0;entryY=0.5;entryDx=0;entryDy=0;" edge="1" parent="1" source="Cx2d999oBa-6Gh2xM0pa-3" target="Cx2d999oBa-6Gh2xM0pa-1">
          <mxGeometry relative="1" as="geometry" />
        </mxCell>
        <mxCell id="Cx2d999oBa-6Gh2xM0pa-3" value="机手id" style="rounded=0;whiteSpace=wrap;html=1;" vertex="1" parent="1">
          <mxGeometry x="180" y="220" width="80" height="40" as="geometry" />
        </mxCell>
        <mxCell id="Cx2d999oBa-6Gh2xM0pa-5" value="工单文件下载列表" style="rounded=1;whiteSpace=wrap;html=1;fontStyle=1" vertex="1" parent="1">
          <mxGeometry x="330" y="360" width="120" height="60" as="geometry" />
        </mxCell>
        <mxCell id="Cx2d999oBa-6Gh2xM0pa-7" value="点开订单详情" style="text;html=1;align=center;verticalAlign=middle;whiteSpace=wrap;rounded=0;" vertex="1" parent="1">
          <mxGeometry x="390" y="300" width="90" height="30" as="geometry" />
        </mxCell>
        <mxCell id="Cx2d999oBa-6Gh2xM0pa-9" style="edgeStyle=orthogonalEdgeStyle;rounded=0;orthogonalLoop=1;jettySize=auto;html=1;exitX=1;exitY=0.5;exitDx=0;exitDy=0;" edge="1" parent="1" source="Cx2d999oBa-6Gh2xM0pa-8" target="Cx2d999oBa-6Gh2xM0pa-5">
          <mxGeometry relative="1" as="geometry" />
        </mxCell>
        <mxCell id="Cx2d999oBa-6Gh2xM0pa-8" value="任务id" style="rounded=0;whiteSpace=wrap;html=1;" vertex="1" parent="1">
          <mxGeometry x="180" y="370" width="80" height="40" as="geometry" />
        </mxCell>
      </root>
    </mxGraphModel>
  </diagram>
</mxfile>
